# xmcd
#
# Track frame offsets:
#       150
#       28959
#       51609
#       85083
#       99516
#       124161
#       152541
#       169866
#       175185
#       184203
#       190445
#       199341
#       212085
#       221608
#       227895
#       238716
#       245163
#       252651
#       257013
#       289302
#       304326
#
# Disc length: 4370 seconds
#
# Revision: 1
# Processed by: cddbd v1.4PL0 Copyright (c) Steve Scherf et al.
# Submitted via: MusiCat 1.1b1
#
DISCID=4b111015
DTITLE=Liszt - Missa Choralis - Via Crucis
DYEAR=1900
DGENRE=
TTITLE0=Missa Choralis: Kyrie
TTITLE1=Gloria
TTITLE2=Credo
TTITLE3=Sanctus
TTITLE4=Benedictus
TTITLE5=Agnus Dei
TTITLE6=Via Crucis: Einleitung
TTITLE7=I
TTITLE8=II
TTITLE9=III
TTITLE10=IV
TTITLE11=V
TTITLE12=VI
TTITLE13=VII
TTITLE14=VIII
TTITLE15=IX
TTITLE16=X
TTITLE17=XI
TTITLE18=XII
TTITLE19=XIII
TTITLE20=XIV
EXTD=2000\nHyperion\nCDA67199\nCorydon Singers - Leigh Melrose, bariton - Thomas
EXTD=Trotter, organ - Matthew Best, conductor
EXTT0=
EXTT1=
EXTT2=
EXTT3=
EXTT4=
EXTT5=
EXTT6=
EXTT7=
EXTT8=
EXTT9=
EXTT10=
EXTT11=
EXTT12=
EXTT13=
EXTT14=
EXTT15=
EXTT16=
EXTT17=
EXTT18=
EXTT19=
EXTT20=
PLAYORDER=
